<svg xmlns="http://www.w3.org/2000/svg" viewBox="0 0 692 201" width="692" height="201" preserveAspectRatio="xMidYMid slice" style="width: 100%; height: 100%; transform: translate3d(0px, 0px, 0px);"><defs><clipPath id="__lottie_element_10"><rect width="692" height="201" x="0" y="0"></rect></clipPath></defs><g clip-path="url(#__lottie_element_10)"><g transform="matrix(1,0,0,1,0,0)" opacity="1" style="display: block;"><g opacity="1" transform="matrix(1,0,0,1,0,83.57907104492188)"><g opacity="1" transform="matrix(1,0,0,1,0,0)"><path fill="rgb(119,255,207)" fill-opacity="1" d=" M111.91033935546875,74.26018524169922 C104.36083221435547,99.27446746826172 83.9327621459961,116 57.43547058105469,116 C24.42487907409668,116 0,90.83769989013672 0,58.42273712158203 C0,25.859758377075195 24.42487907409668,0.6974465847015381 57.43547058105469,0.6974465847015381 C83.48867797851562,0.6974465847015381 104.50886535644531,16.8309268951416 111.91033935546875,41.25315856933594 C111.91033935546875,41.25315856933594 100.06798553466797,41.25315856933594 100.06798553466797,41.25315856933594 C93.25862884521484,23.491539001464844 78.15961456298828,11.354421615600586 57.43547058105469,11.354421615600586 C30.64212417602539,11.354421615600586 11.546303749084473,31.336257934570312 11.546303749084473,58.42273712158203 C11.546303749084473,85.36119842529297 30.64212417602539,105.343017578125 57.43547058105469,105.343017578125 C78.4556655883789,105.343017578125 93.99877166748047,92.76187133789062 100.36404418945312,74.26018524169922 C100.36404418945312,74.26018524169922 111.91033935546875,74.26018524169922 111.91033935546875,74.26018524169922 C111.91033935546875,74.26018524169922 111.91033935546875,74.26018524169922 111.91033935546875,74.26018524169922z"></path></g><g opacity="1" transform="matrix(1,0,0,1,0,0)"><g opacity="1" transform="matrix(1,0,0,1,0,0)"><path fill="rgb(119,255,207)" fill-opacity="1" d=" M163.57261657714844,13.130592346191406 C163.57261657714844,13.130592346191406 153.35853576660156,13.130592346191406 153.35853576660156,13.130592346191406 C153.35853576660156,13.130592346191406 139.4437713623047,69.0797119140625 139.4437713623047,69.0797119140625 C139.4437713623047,69.0797119140625 177.4873809814453,69.0797119140625 177.4873809814453,69.0797119140625 C177.4873809814453,69.0797119140625 163.57261657714844,13.130592346191406 163.57261657714844,13.130592346191406 C163.57261657714844,13.130592346191406 163.57261657714844,13.130592346191406 163.57261657714844,13.130592346191406z M128.341552734375,113.77980041503906 C128.341552734375,113.77980041503906 116.49919128417969,113.77980041503906 116.49919128417969,113.77980041503906 C116.49919128417969,113.77980041503906 144.4767608642578,2.7696361541748047 144.4767608642578,2.7696361541748047 C144.4767608642578,2.7696361541748047 172.45436096191406,2.7696361541748047 172.45436096191406,2.7696361541748047 C172.45436096191406,2.7696361541748047 200.57998657226562,113.77980041503906 200.57998657226562,113.77980041503906 C200.57998657226562,113.77980041503906 188.73760986328125,113.77980041503906 188.73760986328125,113.77980041503906 C188.73760986328125,113.77980041503906 180.1519012451172,79.44065856933594 180.1519012451172,79.44065856933594 C180.1519012451172,79.44065856933594 136.9272918701172,79.44065856933594 136.9272918701172,79.44065856933594 C136.9272918701172,79.44065856933594 128.341552734375,113.77980041503906 128.341552734375,113.77980041503906 C128.341552734375,113.77980041503906 128.341552734375,113.77980041503906 128.341552734375,113.77980041503906z"></path><g opacity="1" transform="matrix(1,0,0,1,0,0)"></g><g opacity="1" transform="matrix(1,0,0,1,0,0)"></g></g></g><g opacity="1" transform="matrix(1,0,0,1,0,0)"><g opacity="1" transform="matrix(1,0,0,1,0,0)"><path fill="rgb(119,255,207)" fill-opacity="1" d=" M432.30413818359375,13.130592346191406 C432.30413818359375,13.130592346191406 405.2147216796875,13.130592346191406 405.2147216796875,13.130592346191406 C405.2147216796875,13.130592346191406 405.2147216796875,60.49492645263672 405.2147216796875,60.49492645263672 C405.2147216796875,60.49492645263672 431.7120056152344,60.49492645263672 431.7120056152344,60.49492645263672 C451.1038818359375,60.49492645263672 458.50537109375,49.393898010253906 458.50537109375,36.664737701416016 C458.50537109375,24.527626037597656 451.2519226074219,13.130592346191406 432.30413818359375,13.130592346191406 C432.30413818359375,13.130592346191406 432.30413818359375,13.130592346191406 432.30413818359375,13.130592346191406z M431.7120056152344,70.85587310791016 C431.7120056152344,70.85587310791016 405.2147216796875,70.85587310791016 405.2147216796875,70.85587310791016 C405.2147216796875,70.85587310791016 405.2147216796875,113.77980041503906 405.2147216796875,113.77980041503906 C405.2147216796875,113.77980041503906 394.1125183105469,113.77980041503906 394.1125183105469,113.77980041503906 C394.1125183105469,113.77980041503906 394.1125183105469,2.7696361541748047 394.1125183105469,2.7696361541748047 C394.1125183105469,2.7696361541748047 431.56396484375,2.7696361541748047 431.56396484375,2.7696361541748047 C455.9888610839844,2.7696361541748047 470.0516662597656,17.126949310302734 470.0516662597656,36.664737701416016 C470.0516662597656,56.49855041503906 455.9888610839844,70.85587310791016 431.7120056152344,70.85587310791016 C431.7120056152344,70.85587310791016 431.7120056152344,70.85587310791016 431.7120056152344,70.85587310791016z"></path><g opacity="1" transform="matrix(1,0,0,1,0,0)"></g><g opacity="1" transform="matrix(1,0,0,1,0,0)"></g></g></g><g opacity="1" transform="matrix(1,0,0,1,0,0)"><path fill="rgb(119,255,207)" fill-opacity="1" d=" M563.7960205078125,72.63203430175781 C563.7960205078125,99.57049560546875 548.1048583984375,116 523.2359008789062,116 C498.5149841308594,116 482.6758117675781,99.57049560546875 482.6758117675781,72.63203430175781 C482.6758117675781,72.63203430175781 482.6758117675781,2.7696361541748047 482.6758117675781,2.7696361541748047 C482.6758117675781,2.7696361541748047 493.7780456542969,2.7696361541748047 493.7780456542969,2.7696361541748047 C493.7780456542969,2.7696361541748047 493.7780456542969,73.66812896728516 493.7780456542969,73.66812896728516 C493.7780456542969,92.61386108398438 504.4361572265625,105.343017578125 523.2359008789062,105.343017578125 C542.1837158203125,105.343017578125 552.6937866210938,92.61386108398438 552.6937866210938,73.66812896728516 C552.6937866210938,73.66812896728516 552.6937866210938,2.7696361541748047 552.6937866210938,2.7696361541748047 C552.6937866210938,2.7696361541748047 563.7960205078125,2.7696361541748047 563.7960205078125,2.7696361541748047 C563.7960205078125,2.7696361541748047 563.7960205078125,72.63203430175781 563.7960205078125,72.63203430175781 C563.7960205078125,72.63203430175781 563.7960205078125,72.63203430175781 563.7960205078125,72.63203430175781z"></path></g><g opacity="1" transform="matrix(1,0,0,1,0,0)"><path fill="rgb(119,255,207)" fill-opacity="1" d=" M631.1101684570312,103.41885375976562 C631.1101684570312,103.41885375976562 631.1101684570312,113.77980041503906 631.1101684570312,113.77980041503906 C631.1101684570312,113.77980041503906 585.2210083007812,113.77980041503906 585.2210083007812,113.77980041503906 C585.2210083007812,113.77980041503906 585.2210083007812,2.7696361541748047 585.2210083007812,2.7696361541748047 C585.2210083007812,2.7696361541748047 596.3231811523438,2.7696361541748047 596.3231811523438,2.7696361541748047 C596.3231811523438,2.7696361541748047 596.3231811523438,103.41885375976562 596.3231811523438,103.41885375976562 C596.3231811523438,103.41885375976562 631.1101684570312,103.41885375976562 631.1101684570312,103.41885375976562 C631.1101684570312,103.41885375976562 631.1101684570312,103.41885375976562 631.1101684570312,103.41885375976562z"></path></g><g opacity="1" transform="matrix(1,0,0,1,0,0)"><path fill="rgb(119,255,207)" fill-opacity="1" d=" M663.2822875976562,113.77980041503906 C663.2822875976562,113.77980041503906 652.1800537109375,113.77980041503906 652.1800537109375,113.77980041503906 C652.1800537109375,113.77980041503906 652.1800537109375,13.130592346191406 652.1800537109375,13.130592346191406 C652.1800537109375,13.130592346191406 623.6103515625,13.130592346191406 623.6103515625,13.130592346191406 C623.6103515625,13.130592346191406 623.6103515625,2.7696361541748047 623.6103515625,2.7696361541748047 C623.6103515625,2.7696361541748047 692,2.7696361541748047 692,2.7696361541748047 C692,2.7696361541748047 692,13.130592346191406 692,13.130592346191406 C692,13.130592346191406 663.2822875976562,13.130592346191406 663.2822875976562,13.130592346191406 C663.2822875976562,13.130592346191406 663.2822875976562,113.77980041503906 663.2822875976562,113.77980041503906 C663.2822875976562,113.77980041503906 663.2822875976562,113.77980041503906 663.2822875976562,113.77980041503906z"></path></g></g></g><g transform="matrix(1,0,0,1,0,0)" opacity="1" style="display: block;"><g opacity="0" transform="matrix(1,0,0,1,543.6770629882812,161.30181884765625)"><path fill="rgb(35,249,167)" fill-opacity="1" d=" M0,-8.553404808044434 C4.722346305847168,-8.553404808044434 8.556525230407715,-4.720623970031738 8.556525230407715,0 C8.556525230407715,4.720623970031738 4.722346305847168,8.553404808044434 0,8.553404808044434 C-4.722346305847168,8.553404808044434 -8.556525230407715,4.720623970031738 -8.556525230407715,0 C-8.556525230407715,-4.720623970031738 -4.722346305847168,-8.553404808044434 0,-8.553404808044434z"></path></g></g><g transform="matrix(1,0,0,1,0,0)" opacity="1" style="display: block;"><g opacity="1" transform="matrix(1,0,0,1,11.081487655639648,85.34627532958984)"><path fill="rgb(119,255,207)" fill-opacity="1" d=" M234.9633331298828,11.363388061523438 C234.9633331298828,11.363388061523438 234.9633331298828,112.01239776611328 234.9633331298828,112.01239776611328 C234.9633331298828,112.01239776611328 223.0634002685547,112.01239776611328 223.0634002685547,112.01239776611328 C223.0634002685547,112.01239776611328 223.0634002685547,11.363388061523438 223.0634002685547,11.363388061523438 C223.0634002685547,11.363388061523438 204.2261505126953,25.993526458740234 191.44322204589844,18.631925582885742 C178.66029357910156,11.27032470703125 180.10447692871094,-0.10684140771627426 180.10447692871094,-0.10684140771627426 C189.33990478515625,-0.29805266857147217 206.42138671875,-1.8951473236083984 228.79318237304688,-1.0697555541992188 C257.35211181640625,4.2453413009643555 270.03131103515625,13.086779594421387 291.6382751464844,28.957366943359375 C327.7773132324219,61.4633903503418 345.5600280761719,78.8636703491211 368.8722839355469,112.01239776611328 C368.8722839355469,112.01239776611328 357.0327453613281,112.01239776611328 357.0327453613281,112.01239776611328 C329.73284912109375,78.91326904296875 313.6276550292969,62.610652923583984 288.9613037109375,41.19492721557617 C264.2949523925781,19.779199600219727 252.0164337158203,13.770442962646484 235.05690002441406,11.427268028259277"></path></g></g><g transform="matrix(1,0,0,1,0,0)" opacity="1" style="display: block;"><g opacity="1" transform="matrix(1.487546443939209,0,0,1.487546443939209,279.5443420410156,86.53645324707031)"><g opacity="1" transform="matrix(1,0,0,1,0,0)"><path fill="rgb(119,255,207)" fill-opacity="1" d=" M44.21318054199219,20.53138542175293 C43.8410758972168,19.121971130371094 43.32010269165039,17.71255111694336 42.65031433105469,16.303136825561523 C42.05494689941406,14.893722534179688 41.310760498046875,13.632672309875488 40.41770935058594,12.519972801208496 C39.524658203125,11.407278060913086 38.482784271240234,10.517118453979492 37.29205322265625,9.84950065612793 C36.17573928833008,9.107704162597656 34.91057586669922,8.73680591583252 33.49658203125,8.73680591583252 C32.157005310058594,8.73680591583252 30.891845703125,9.107704162597656 29.701112747192383,9.84950065612793 C28.584800720214844,10.517118453979492 27.580095291137695,11.407278060913086 26.687044143676758,12.519972801208496 C25.793994903564453,13.632672309875488 25.01259422302246,14.893722534179688 24.342805862426758,16.303136825561523 C23.673019409179688,17.71255111694336 23.152074813842773,19.121971130371094 22.779970169067383,20.53138542175293 C22.779970169067383,20.53138542175293 22.000001907348633,24.499998092651367 22.000001907348633,24.499998092651367 C31.578109741210938,32.92351531982422 44.82963943481445,45.13528823852539 55.714874267578125,58.4999885559082 C55.714874267578125,58.4999885559082 44.21318054199219,20.53138542175293 44.21318054199219,20.53138542175293 C44.21318054199219,20.53138542175293 44.21318054199219,20.53138542175293 44.21318054199219,20.53138542175293z M67.5,74.5 C67.5,74.5 59.39503479003906,74.5 59.39503479003906,74.5 C44.35042953491211,56.318603515625 32.810829162597656,43.30856704711914 19.751802444458008,31.67323112487793 C19.751802444458008,31.67323112487793 13.500001907348633,53.80099105834961 13.500001907348633,53.80099105834961 C13.500001907348633,53.80099105834961 7.902467727661133,74.5 7.902467727661133,74.5 C7.902467727661133,74.5 0,74.5 0,74.5 C0,74.5 13.519777297973633,26.62898826599121 13.519777297973633,26.62898826599121 C13.519777297973633,26.62898826599121 15.500001907348633,18.499998092651367 15.500001907348633,18.499998092651367 C15.875988960266113,17.55705451965332 16.75322914123535,14.220499992370605 17.189027786254883,13.297430038452148 C18.454181671142578,10.70113754272461 19.979816436767578,8.401564598083496 21.76591682434082,6.398711204528809 C23.552017211914062,4.321678638458252 25.598596572875977,2.6526401042938232 27.905641555786133,1.391587495803833 C30.212688446044922,0.1305304765701294 32,0 33.5,0 C35,0 36.8548698425293,0.1305304765701294 39.087493896484375,1.391587495803833 C41.3945426940918,2.6526401042938232 43.441104888916016,4.3216776847839355 45.227203369140625,6.398710250854492 C47.0133056640625,8.40156364440918 48.5389404296875,10.70113754272461 49.80409240722656,13.297430038452148 C51.069244384765625,15.819540023803711 52.03672409057617,18.41583251953125 52.706512451171875,21.0863037109375 C52.706512451171875,21.0863037109375 67.5,74.5 67.5,74.5 C67.5,74.5 67.5,74.5 67.5,74.5z"></path><g opacity="1" transform="matrix(1,0,0,1,0,0)"></g><g opacity="1" transform="matrix(1,0,0,1,0,0)"></g></g></g></g></g></svg>
