<svg id="Layer_1" data-name="Layer 1" xmlns="http://www.w3.org/2000/svg" width="233.5" height="62.41" viewBox="0 0 233.5 62.41"><title>Ripple logo - Brandlogos.net</title><path d="M310.93,390.9a12.4,12.4,0,0,0-6.12-1.54,4.42,4.42,0,0,1-4.4-4.62,4.76,4.76,0,0,1,1.3-3.24,4.39,4.39,0,0,1,3.1-1.38,12.51,12.51,0,0,0,6.12-1.54,11.4,11.4,0,0,0,4.08-4.26,12,12,0,0,0,0-11.62,11.4,11.4,0,0,0-4.08-4.25,10.77,10.77,0,0,0-11.15,0,11.4,11.4,0,0,0-4.08,4.25,12,12,0,0,0-1.5,5.81,13.73,13.73,0,0,0,1.75,6.25,4.64,4.64,0,0,1-1.59,6.32,4.32,4.32,0,0,1-3.36.42,4.51,4.51,0,0,1-2.68-2.15,13.18,13.18,0,0,0-4.32-4.71,10.77,10.77,0,0,0-11.16,0,11.4,11.4,0,0,0-4.08,4.25,12,12,0,0,0,0,11.62,11.4,11.4,0,0,0,4.08,4.25,10.77,10.77,0,0,0,11.16,0,13.17,13.17,0,0,0,4.32-4.71c.91-1.54,3.18-3.45,6-1.72a4.65,4.65,0,0,1,2,2.82,4.84,4.84,0,0,1-.44,3.5,13.73,13.73,0,0,0-1.75,6.25,12,12,0,0,0,1.5,5.81,11.41,11.41,0,0,0,4.09,4.26,10.78,10.78,0,0,0,11.16,0,11.4,11.4,0,0,0,4.09-4.25,12,12,0,0,0,0-11.63,11.41,11.41,0,0,0-4.08-4.26Z" transform="translate(-267.25 -352.8)" style="fill:#008cff"/><path d="M331.86,367.11h7.77v3.82a11.16,11.16,0,0,1,3.81-3.1,10.71,10.71,0,0,1,4.72-1.11,10.45,10.45,0,0,1,3.28.4v9.24a11.9,11.9,0,0,0-3.66-.4c-4.43,0-7.39,3.08-7.39,7.7V402.5h-8.53Zm41.75,0h7.77v3.42a14.31,14.31,0,0,1,9.6-3.82c8.53,0,15.92,7.7,15.92,18.09S399.51,402.9,391,402.9a13,13,0,0,1-8.84-3.48V415.2h-8.53Zm24.76,17.7c0-5.79-3.67-9.61-8.46-9.61s-8.53,3.8-8.53,9.61,3.72,9.59,8.53,9.59S398.37,390.6,398.37,384.81Zm14.78-17.7h7.77v3.42a14.33,14.33,0,0,1,9.6-3.82c8.53,0,15.92,7.7,15.92,18.09S439,402.9,430.52,402.9a13,13,0,0,1-8.84-3.48V415.2h-8.53Zm24.76,17.7c0-5.79-3.67-9.61-8.47-9.61s-8.53,3.8-8.53,9.61,3.73,9.59,8.53,9.59S437.91,390.6,437.91,384.81ZM452.69,354h8.53V402.5h-8.53Zm14.78,30.79c0-10,7.77-18.09,17-18.09,8.9,0,16.29,7.31,16.29,18.09a22.47,22.47,0,0,1-.38,3.49H476.69a7.49,7.49,0,0,0,7.77,6.1c4,0,5.56-1.9,5.56-1.9h9.22c-1.71,4.62-7,10.39-14.78,10.39C475.24,402.9,467.47,394.81,467.47,384.81Zm25.12-2.69a8.73,8.73,0,0,0-2.89-5,8.06,8.06,0,0,0-10.51,0,8.73,8.73,0,0,0-2.89,5ZM356.42,357.83a5.14,5.14,0,0,1,1.42-3.56,4.7,4.7,0,0,1,6.83,0,5.18,5.18,0,0,1,0,7.12,4.7,4.7,0,0,1-6.83,0A5.14,5.14,0,0,1,356.42,357.83Zm.57,9.28h8.54v35.41H357Z" transform="translate(-267.25 -352.8)" style="fill:#141a1f"/></svg>